<?xml version="1.0" standalone="no"?>
<!DOCTYPE svg PUBLIC "-//W3C//DTD SVG 20010904//EN"
 "http://www.w3.org/TR/2001/REC-SVG-20010904/DTD/svg10.dtd">
<svg version="1.0" xmlns="http://www.w3.org/2000/svg"
 width="436.000000pt" height="436.000000pt" viewBox="0 0 436.000000 436.000000"
 preserveAspectRatio="xMidYMid meet">
<metadata>
Created by potrace 1.11, written by Peter Selinger 2001-2013
</metadata>
<g transform="translate(0.000000,436.000000) scale(0.100000,-0.100000)"
fill="#000000" stroke="none">
<path d="M1564 3799 c-39 -4 -97 -15 -130 -25 -32 -9 -62 -17 -66 -16 -5 1 -8
-2 -8 -8 0 -5 -7 -10 -15 -10 -20 0 -139 -73 -202 -124 -46 -39 -159 -136
-187 -161 -6 -6 -33 -26 -61 -45 -27 -19 -52 -37 -55 -40 -3 -3 -18 -12 -34
-20 -49 -25 -138 -123 -185 -203 -41 -69 -47 -74 -68 -66 -39 15 -81 51 -110
93 -15 23 -43 58 -62 79 -29 31 -42 37 -76 37 -71 -1 -156 -52 -188 -115 -27
-54 -65 -180 -81 -266 -8 -46 -18 -100 -21 -119 -4 -19 -9 -96 -12 -170 -16
-405 154 -719 447 -826 94 -34 328 -52 398 -30 25 8 37 -4 52 -49 41 -128 140
-224 258 -250 74 -16 174 2 220 40 7 5 18 15 26 20 7 6 40 37 74 69 58 57 86
70 63 29 -18 -31 -89 -227 -96 -266 -4 -20 -8 -85 -10 -144 -2 -67 -8 -121
-17 -143 -19 -43 -14 -121 10 -170 33 -66 64 -75 262 -75 113 0 195 5 231 14
l57 14 73 -62 c40 -33 76 -61 80 -61 4 0 19 -21 34 -47 37 -61 68 -87 137
-114 59 -22 116 -22 170 -1 46 19 114 89 179 186 74 108 107 179 115 245 7 55
-4 85 -44 118 l-27 23 55 1 c30 0 78 2 107 5 l52 4 -1 -42 c-1 -73 1 -82 38
-138 49 -76 57 -97 59 -160 3 -61 19 -127 38 -151 58 -74 189 -73 467 5 163
46 222 96 215 181 -2 24 -10 56 -18 72 -27 51 -25 66 8 68 93 6 202 63 296
156 48 47 106 158 115 217 3 20 7 43 9 50 9 27 -20 69 -101 148 -74 72 -89 92
-110 150 -20 55 -23 77 -17 123 4 31 7 127 7 213 l1 157 30 -3 c75 -7 145 48
175 140 12 35 30 74 41 88 12 15 23 48 26 79 4 44 1 61 -21 102 -43 83 -131
163 -228 208 -94 44 -113 34 -75 -42 13 -25 12 -31 -7 -57 -16 -22 -21 -45
-23 -98 -1 -38 3 -80 8 -94 5 -13 7 -27 5 -29 -8 -9 -51 41 -82 92 -146 250
-390 424 -714 510 -86 22 -130 32 -239 50 -24 4 -53 24 -95 65 -118 114 -159
142 -228 155 -27 5 -46 18 -70 49 -66 85 -184 193 -251 230 -126 71 -331 139
-453 151 -38 4 -71 8 -74 9 -3 1 -37 -1 -76 -5z"/>
<path d="M2195 3798 c11 -8 43 -28 70 -44 72 -41 136 -105 180 -179 21 -36 40
-64 42 -62 7 8 -39 122 -66 162 -33 49 -90 89 -161 111 -30 9 -62 19 -70 22
-8 2 -6 -2 5 -10z"/>
<path d="M2340 3791 c0 -4 17 -20 38 -33 21 -14 49 -39 62 -57 14 -17 28 -31
33 -31 10 0 -28 73 -46 88 -21 18 -87 43 -87 33z"/>
<path d="M4140 2823 c0 -4 10 -19 23 -33 70 -76 122 -187 133 -286 9 -75 23
-48 19 35 -5 91 -12 121 -39 161 -37 56 -136 145 -136 123z"/>
<path d="M4295 2723 c13 -21 33 -60 42 -88 l18 -50 3 34 c5 50 -4 75 -40 110
-43 42 -54 39 -23 -6z"/>
</g>
</svg>
