<?xml version="1.0" standalone="no"?>
<!DOCTYPE svg PUBLIC "-//W3C//DTD SVG 20010904//EN"
 "http://www.w3.org/TR/2001/REC-SVG-20010904/DTD/svg10.dtd">
<svg version="1.0" xmlns="http://www.w3.org/2000/svg"
 width="1000.000000pt" height="1000.000000pt" viewBox="0 0 1000.000000 1000.000000"
 preserveAspectRatio="xMidYMid meet">
<metadata>
Created by potrace 1.11, written by Peter Selinger 2001-2013
</metadata>
<g transform="translate(0.000000,1000.000000) scale(0.100000,-0.100000)"
fill="#000000" stroke="none">
<path d="M2415 8135 c-69 -15 -173 -52 -195 -69 -8 -7 -28 -18 -45 -26 -41
-20 -174 -154 -213 -214 -43 -66 -90 -192 -101 -269 -55 -384 196 -733 579
-803 19 -3 72 -6 118 -6 397 1 710 328 696 726 -11 315 -226 578 -534 655 -90
22 -222 25 -305 6z"/>
<path d="M7330 8139 c-25 -6 -49 -11 -55 -13 -5 -2 -23 -6 -40 -11 -51 -13
-159 -74 -221 -123 -224 -181 -315 -484 -227 -757 69 -215 240 -387 453 -455
181 -58 381 -40 548 50 185 99 319 284 359 495 12 67 6 226 -11 295 -10 36
-36 103 -59 150 -33 69 -58 102 -128 172 -73 72 -104 95 -181 132 -51 25 -122
51 -158 59 -79 16 -219 19 -280 6z"/>
<path d="M4616 7503 c-2 -2 -34 -8 -98 -17 -53 -8 -205 -43 -261 -60 -52 -16
-57 -17 -72 -21 -70 -21 -131 -43 -182 -66 -35 -16 -63 -27 -63 -25 0 7 -227
-110 -305 -157 -277 -166 -528 -392 -738 -667 -109 -142 -255 -403 -325 -580
-62 -158 -130 -402 -147 -530 -3 -25 -8 -56 -10 -70 -2 -14 -7 -45 -10 -70
l-5 -46 264 0 265 0 6 51 c13 96 54 261 94 377 43 122 108 268 120 268 4 0 16
-35 26 -77 22 -91 19 -79 44 -168 10 -38 29 -106 41 -150 12 -44 25 -84 29
-88 4 -4 66 -23 137 -42 71 -18 154 -40 184 -48 30 -8 159 -42 285 -76 127
-33 242 -65 258 -70 26 -9 39 3 319 282 161 161 309 310 330 333 l38 41 -15
49 c-15 54 -63 229 -70 256 -12 54 -156 582 -159 585 -1 2 -38 13 -82 24 -77
20 -249 67 -269 73 -5 1 -27 6 -48 11 l-39 8 41 18 c103 46 401 125 498 132
l22 2 0 263 0 263 -50 -3 c-28 -2 -52 -4 -53 -5z"/>
<path d="M5202 7248 l0 -264 27 -2 c23 -2 225 -43 275 -56 55 -15 186 -60 220
-77 22 -10 47 -19 55 -19 32 -1 -13 -18 -134 -50 -66 -18 -124 -33 -130 -35
-5 -1 -31 -8 -57 -14 -49 -14 -48 -12 -82 -151 -2 -8 -11 -42 -21 -75 -54
-194 -69 -250 -121 -445 -31 -118 -58 -220 -61 -226 -2 -6 144 -160 325 -341
l330 -329 143 38 c520 139 745 201 751 206 4 4 28 89 55 189 26 101 51 183 56
183 4 0 6 -3 5 -7 -1 -5 3 -17 9 -28 37 -69 112 -331 133 -470 6 -38 13 -72
16 -75 3 -3 122 -5 265 -5 l260 -1 -6 51 c-20 182 -87 468 -135 580 -4 11 -23
58 -41 104 -50 130 -201 410 -261 486 -4 6 -39 51 -76 100 -348 457 -860 795
-1412 931 -83 20 -269 55 -321 60 l-67 6 0 -264z"/>
<path d="M3965 4774 c-230 -63 -389 -105 -525 -140 -163 -42 -157 -39 -169
-92 -6 -26 -13 -54 -16 -62 -2 -8 -30 -111 -61 -228 -32 -117 -61 -209 -65
-205 -13 14 -87 191 -113 273 -35 108 -56 194 -76 320 l-12 75 -186 -2 c-103
-1 -222 -2 -265 -2 l-77 -1 5 -47 c3 -27 7 -59 10 -73 2 -14 7 -45 10 -70 17
-127 94 -398 158 -555 20 -48 163 -332 176 -347 6 -7 34 -49 63 -93 207 -319
574 -655 898 -825 36 -18 79 -41 95 -50 55 -30 269 -118 352 -144 182 -57 274
-76 515 -111 l38 -5 0 153 c1 83 1 160 1 170 0 9 0 60 -1 112 -1 107 6 98 -92
110 -26 3 -53 8 -60 10 -7 2 -25 6 -39 9 -100 17 -316 89 -428 143 -55 27 -55
36 0 47 13 2 48 12 78 21 30 9 62 18 70 20 18 3 130 33 261 69 l85 23 23 79
c13 43 25 86 27 94 2 8 20 76 40 150 20 74 38 142 40 150 5 19 92 344 105 390
l10 35 -328 327 c-180 180 -331 327 -337 327 -5 0 -100 -25 -210 -55z"/>
<path d="M5497 4502 l-327 -328 26 -94 c14 -52 28 -102 29 -110 2 -8 25 -91
50 -185 26 -93 51 -186 55 -205 23 -98 79 -293 86 -300 8 -8 82 -28 387 -107
53 -14 97 -28 97 -32 0 -8 -127 -67 -225 -103 -116 -44 -227 -74 -335 -93 -52
-10 -105 -19 -116 -21 -22 -4 -22 -5 -20 -266 1 -256 2 -263 21 -262 30 2 129
14 156 19 23 5 79 15 109 20 8 2 35 8 60 15 25 7 55 14 68 16 39 7 183 55 277
91 490 189 927 544 1218 989 189 288 331 649 381 964 13 79 20 137 20 170 l1
35 -253 0 c-139 0 -257 -2 -262 -5 -5 -3 -11 -19 -14 -35 -13 -82 -18 -115
-18 -120 0 -2 -9 -37 -19 -77 -11 -40 -22 -83 -24 -95 -6 -27 -64 -193 -74
-211 -8 -14 -21 26 -71 218 -56 214 -50 199 -95 211 -22 5 -51 14 -65 19 -14
4 -81 23 -150 40 -69 18 -154 40 -190 50 -89 25 -446 120 -451 120 -2 0 -152
-147 -332 -328z"/>
<path d="M2480 3247 c-3 -2 -25 -7 -50 -10 -103 -12 -248 -83 -343 -167 -231
-207 -299 -544 -165 -825 95 -200 276 -340 509 -391 75 -16 283 -1 344 26 114
49 147 67 195 103 227 171 328 441 269 715 -55 253 -252 459 -504 527 -58 16
-245 32 -255 22z"/>
<path d="M7350 3243 c-108 -17 -249 -80 -335 -150 -163 -132 -256 -327 -258
-538 -1 -108 6 -155 40 -249 98 -274 361 -458 653 -458 98 -1 113 1 190 22
153 41 290 137 386 270 91 128 133 263 128 417 -2 106 -8 137 -39 226 -35 102
-81 172 -170 262 -64 65 -98 90 -167 124 -48 23 -120 50 -160 60 -68 16 -208
23 -268 14z"/>
</g>
</svg>
