<?xml version="1.0" standalone="no"?>
<!DOCTYPE svg PUBLIC "-//W3C//DTD SVG 20010904//EN"
 "http://www.w3.org/TR/2001/REC-SVG-20010904/DTD/svg10.dtd">
<svg version="1.0" xmlns="http://www.w3.org/2000/svg"
 width="600.000000pt" height="600.000000pt" viewBox="0 0 600.000000 600.000000"
 preserveAspectRatio="xMidYMid meet">
<metadata>
Created by potrace 1.11, written by Peter Selinger 2001-2013
</metadata>
<g transform="translate(0.000000,600.000000) scale(0.100000,-0.100000)"
fill="#000000" stroke="none">
<path d="M2673 5135 c-35 -15 -60 -47 -67 -85 -2 -14 -5 -27 -6 -30 -6 -14 -4
-36 3 -47 4 -6 3 -14 -3 -18 -8 -5 -8 -11 0 -20 8 -10 8 -19 0 -35 -8 -14 -8
-25 -1 -33 6 -8 6 -18 1 -27 -5 -9 -5 -19 1 -27 7 -8 7 -19 -1 -33 -8 -14 -8
-25 -1 -33 6 -8 6 -18 1 -27 -5 -9 -5 -19 1 -27 7 -8 7 -19 -1 -33 -8 -14 -8
-25 -1 -33 6 -8 6 -18 1 -27 -5 -9 -5 -19 1 -27 6 -7 7 -19 2 -30 -11 -21 -11
-33 0 -50 4 -6 4 -14 0 -16 -5 -3 -317 -5 -694 -4 -639 0 -688 -1 -716 -18
-63 -37 -65 -47 -66 -366 0 -198 -4 -289 -11 -290 -6 -1 -146 -3 -311 -4 -363
-3 -327 0 -357 -28 -50 -46 -51 -53 -52 -362 l-1 -290 -103 -2 c-148 -2 -205
-29 -260 -123 -26 -43 -27 -51 -26 -175 3 -382 97 -786 256 -1100 42 -84 148
-249 193 -300 88 -102 160 -168 261 -241 69 -49 226 -131 284 -149 14 -4 39
-13 55 -20 41 -17 156 -51 235 -69 61 -14 84 -19 155 -31 17 -3 41 -7 55 -10
14 -3 48 -7 75 -11 28 -3 58 -8 68 -10 136 -25 747 -25 907 0 14 2 51 7 84 11
177 20 467 88 646 151 187 65 489 202 498 226 2 4 7 8 12 8 8 0 109 59 120 70
15 15 71 50 80 50 5 0 10 3 10 8 0 4 17 18 38 32 20 14 39 27 42 30 3 3 30 25
60 50 30 24 66 55 79 67 13 13 28 23 32 23 5 0 9 7 9 15 0 8 4 15 8 15 21 0
198 192 291 315 16 22 37 48 45 58 9 9 16 20 16 25 0 4 12 21 28 38 15 18 28
37 30 43 1 7 11 22 22 34 11 11 20 25 20 29 0 5 8 21 19 36 27 39 55 86 56 92
1 5 7 16 41 75 42 72 147 295 199 423 25 61 43 92 54 93 9 0 55 1 103 2 49 1
88 4 88 7 0 3 15 6 33 8 32 2 72 9 72 12 0 1 11 3 25 6 85 14 350 154 350 185
0 5 4 9 10 9 14 0 89 84 133 149 40 58 47 72 78 156 l19 49 -38 33 c-39 34
-135 86 -158 86 -8 0 -14 3 -14 7 0 3 -10 6 -22 7 -11 1 -24 6 -27 10 -3 5
-16 8 -29 7 -12 -1 -25 3 -28 8 -3 4 -9 6 -14 3 -5 -3 -19 -1 -31 6 -16 8 -20
8 -14 -1 5 -9 2 -9 -11 -2 -11 5 -39 10 -64 10 -88 3 -196 1 -230 -3 -90 -13
-120 -14 -115 -5 4 6 1 10 -4 10 -6 0 -11 11 -11 25 0 47 -61 202 -113 290
-33 55 -102 137 -166 197 -39 37 -71 64 -71 62 0 -3 -7 1 -15 8 -30 27 -41 35
-72 48 -18 8 -33 18 -33 21 0 4 -8 9 -18 11 -18 5 -42 -13 -42 -32 0 -5 -4
-10 -10 -10 -5 0 -10 -7 -10 -15 0 -8 -4 -15 -10 -15 -5 0 -10 -6 -10 -14 0
-8 -4 -16 -9 -18 -10 -4 -101 -193 -101 -211 0 -7 -5 -18 -12 -25 -7 -7 -9
-12 -5 -12 3 0 2 -12 -4 -27 -7 -16 -13 -39 -14 -53 -2 -14 -4 -25 -5 -25 -1
0 -3 -9 -5 -20 -24 -126 -20 -276 9 -380 7 -27 15 -56 17 -64 2 -8 21 -50 42
-94 41 -86 40 -91 -15 -104 -16 -3 -28 -9 -28 -13 0 -7 -76 -25 -92 -21 -5 0
-8 -3 -8 -9 0 -6 -3 -9 -7 -8 -5 1 -33 -2 -63 -7 -30 -5 -64 -9 -76 -10 -11
-1 -26 -5 -32 -9 -12 -7 -21 4 -27 34 -2 11 2 20 8 20 8 0 8 3 -1 9 -17 11
-17 21 0 32 7 5 8 9 2 9 -6 0 -11 7 -11 15 0 8 5 15 11 15 7 0 7 3 1 8 -13 9
-13 105 0 114 7 5 6 8 -1 8 -14 0 -14 30 0 30 7 0 7 3 1 8 -13 9 -13 145 0
154 6 5 7 8 0 8 -6 0 -10 26 -9 60 1 68 -17 107 -62 137 -25 16 -57 18 -346
18 -311 0 -319 0 -324 20 -8 35 -9 365 -1 365 5 0 5 5 2 11 -11 17 -11 149 0
149 5 0 4 5 -2 11 -8 8 -8 20 -3 34 5 13 6 26 3 29 -8 8 -7 101 1 115 4 6 3
11 -1 11 -5 0 -6 25 -3 55 3 31 4 58 1 60 -2 3 -4 22 -4 43 1 20 2 71 3 112 1
41 1 77 0 80 -6 24 -3 120 4 120 5 0 3 6 -3 13 -6 8 -8 16 -5 19 11 12 -34 74
-67 90 -30 16 -69 18 -354 18 -250 -1 -327 -4 -352 -15z"/>
<path d="M3864 1136 c-53 -24 -65 -98 -20 -135 24 -20 83 -22 106 -3 22 18 45
92 29 92 -5 0 -9 5 -9 11 0 12 -21 33 -35 36 -6 1 -17 4 -25 7 -8 3 -29 -1
-46 -8z m74 -27 c12 -11 20 -24 17 -30 -4 -5 -2 -9 3 -9 15 0 3 -36 -18 -55
-25 -23 -69 -15 -92 16 -19 25 -19 28 -4 57 24 46 59 54 94 21z"/>
<path d="M3880 1102 c-17 -8 -22 -85 -5 -78 5 2 9 9 8 15 -2 6 4 11 12 11 8 0
15 -7 15 -15 0 -8 6 -15 13 -15 16 0 10 71 -7 82 -13 9 -16 9 -36 0z m30 -22
c0 -5 -7 -10 -15 -10 -8 0 -15 5 -15 10 0 6 7 10 15 10 8 0 15 -4 15 -10z"/>
</g>
</svg>
