<?xml version="1.0" standalone="no"?>
<!DOCTYPE svg PUBLIC "-//W3C//DTD SVG 20010904//EN"
 "http://www.w3.org/TR/2001/REC-SVG-20010904/DTD/svg10.dtd">
<svg version="1.0" xmlns="http://www.w3.org/2000/svg"
 width="512.000000pt" height="512.000000pt" viewBox="0 0 512.000000 512.000000"
 preserveAspectRatio="xMidYMid meet">
<metadata>
Created by potrace 1.11, written by Peter Selinger 2001-2013
</metadata>
<g transform="translate(0.000000,512.000000) scale(0.100000,-0.100000)"
fill="#000000" stroke="none">
<path d="M1385 4378 c-292 -24 -530 -253 -563 -542 -9 -80 -7 -2276 2 -2341 8
-60 34 -144 50 -164 6 -8 10 -17 9 -20 -2 -3 12 -28 29 -56 18 -27 34 -53 36
-57 9 -18 71 -76 76 -71 3 4 6 -1 6 -10 0 -9 5 -17 10 -17 6 0 34 -18 62 -40
28 -23 57 -39 64 -36 8 3 13 0 11 -7 -1 -7 4 -11 11 -9 8 1 11 -2 7 -8 -3 -5
-1 -10 4 -10 6 0 11 6 11 13 0 8 4 7 10 -3 5 -8 10 -11 10 -6 0 5 7 3 15 -4 8
-7 15 -9 15 -5 0 4 7 2 15 -5 8 -7 15 -18 15 -24 0 -6 -5 -4 -10 4 -5 8 -10
10 -10 5 0 -6 4 -15 9 -20 5 -6 11 -19 14 -30 4 -18 5 -17 6 3 0 13 5 21 10
18 5 -3 14 0 20 7 8 10 7 14 -4 14 -8 0 -11 -5 -8 -10 3 -6 1 -7 -5 -3 -20 12
-13 24 13 24 14 0 25 -5 25 -10 0 -6 11 -8 25 -6 14 3 28 1 31 -3 3 -5 10 -9
16 -9 6 0 5 7 -3 18 -13 15 -12 16 3 3 10 -7 15 -18 11 -25 -3 -6 7 0 23 14
16 14 23 18 17 10 -17 -19 -17 -35 0 -21 8 6 17 8 20 4 4 -3 7 0 7 8 1 10 4 9
11 -4 6 -9 15 -15 20 -12 5 4 6 11 3 17 -4 5 5 2 20 -7 25 -16 35 -10 19 11
-5 5 2 -1 13 -14 13 -14 24 -20 28 -14 3 6 1 13 -4 15 -6 3 -5 4 1 3 16 -3 20
-34 7 -43 -7 -3 -8 -1 -4 5 4 7 -1 10 -14 7 -11 -2 -18 -1 -16 4 3 4 -13 7
-35 7 -21 0 -39 -3 -39 -7 0 -8 32 -23 44 -20 5 1 6 -5 3 -13 -4 -9 -3 -18 2
-20 11 -7 10 27 -2 42 -6 8 -6 12 1 12 6 0 20 -12 31 -28 13 -17 19 -20 14 -8
-4 13 -3 17 5 12 6 -3 18 4 26 16 12 17 13 25 3 37 -10 12 -9 13 3 6 8 -5 21
-10 28 -11 19 -3 27 -13 18 -21 -4 -4 -11 -1 -15 6 -6 9 -11 10 -15 2 -4 -6
-4 -16 0 -23 5 -7 3 -8 -6 -3 -9 5 -11 4 -6 -3 4 -7 3 -12 -2 -12 -5 0 -9 -7
-9 -16 0 -15 1 -15 12 0 14 18 30 22 19 4 -4 -7 -3 -8 4 -4 6 4 9 13 5 21 -4
13 8 20 21 13 2 -2 13 6 25 16 12 11 24 16 28 13 3 -4 1 -7 -6 -7 -7 0 -9 -5
-6 -10 4 -7 13 -6 27 1 15 8 19 8 14 0 -4 -6 -2 -11 5 -11 7 0 9 9 6 23 -6 21
-6 21 9 2 13 -17 12 -20 -8 -32 -28 -15 -49 -17 -28 -2 12 9 12 10 -3 5 -10
-3 -21 -6 -23 -6 -2 0 -4 -4 -4 -8 0 -5 14 -8 30 -8 17 0 30 3 30 8 0 4 3 7 8
7 27 -4 32 2 22 24 -9 18 -9 20 2 7 7 -8 22 -17 32 -18 18 -3 19 -2 5 15 -13
17 -13 17 5 3 16 -13 20 -12 32 5 8 10 14 14 14 7 0 -6 -9 -17 -20 -25 -11 -8
-18 -16 -15 -18 2 -3 -7 -5 -22 -5 -18 1 -28 -6 -34 -22 -6 -15 -5 -21 1 -17
6 3 10 14 10 23 0 13 2 14 9 3 7 -11 9 -11 14 0 4 11 9 10 21 -5 15 -18 21
-13 18 15 -1 4 8 15 18 24 17 15 22 16 36 5 13 -11 17 -11 24 -1 5 9 10 10 14
2 4 -6 2 -11 -4 -11 -6 0 -8 -4 -5 -10 4 -6 13 -5 25 2 10 7 16 16 14 20 -3 4
-1 8 4 8 6 0 9 -18 8 -39 -2 -41 7 -47 17 -11 3 13 1 18 -5 13 -7 -3 -8 -1 -4
6 4 6 12 9 17 6 5 -4 9 4 10 17 1 22 2 19 15 -20 2 -8 9 -10 16 -5 20 12 46
14 53 3 3 -6 1 -10 -4 -10 -6 0 -11 -5 -11 -11 0 -5 4 -7 10 -4 6 3 10 2 10
-3 0 -5 19 -9 43 -8 30 1 41 -3 39 -12 -1 -8 2 -11 8 -7 18 11 -11 41 -41 41
-16 0 -29 -4 -29 -8 0 -5 -5 -6 -11 -2 -8 5 -8 9 1 14 9 5 9 9 1 14 -6 4 -11
11 -11 16 0 10 27 7 37 -5 4 -4 2 -5 -6 0 -9 5 -12 3 -9 -5 2 -8 14 -14 26
-15 18 -1 21 2 17 19 -5 19 -4 19 6 -1 7 -13 16 -23 21 -23 5 0 4 8 -1 18 -7
14 -6 19 4 19 8 0 12 -4 9 -9 -3 -5 0 -16 8 -25 9 -12 9 -15 1 -9 -7 4 -13 3
-13 -1 0 -5 10 -14 23 -22 20 -13 21 -13 8 2 -9 12 -10 17 -2 17 6 0 14 -7 18
-16 5 -13 7 -13 14 -2 5 7 9 18 9 23 0 6 -4 4 -8 -3 -7 -10 -12 -8 -24 5 -16
18 -21 56 -7 47 5 -2 5 -12 2 -22 -6 -15 -5 -16 13 -2 18 14 18 14 4 -4 -14
-18 -13 -18 8 -12 16 6 22 3 22 -8 0 -9 5 -16 11 -16 5 0 7 -5 4 -11 -4 -6 2
-5 14 3 12 7 21 17 21 22 0 4 -6 3 -14 -3 -11 -9 -16 -9 -22 1 -4 7 -4 10 1 6
4 -4 14 -3 22 3 7 6 13 8 13 3 0 -5 5 -2 10 6 9 13 11 13 20 0 5 -8 10 -10 10
-5 0 6 9 -1 20 -15 14 -19 22 -22 30 -14 9 9 9 14 -1 19 -8 5 -10 4 -5 -3 4
-7 2 -12 -4 -12 -7 0 -10 7 -6 15 3 8 2 15 -2 15 -5 0 -17 7 -28 16 -10 9 -2
6 20 -5 21 -12 41 -19 44 -16 4 3 1 10 -7 14 -10 6 -9 10 4 15 9 3 13 11 9 17
-4 8 -3 9 5 5 8 -5 9 -12 2 -20 -6 -7 -6 -17 -1 -26 6 -8 10 -19 10 -25 0 -5
-5 -3 -10 5 -7 12 -9 10 -7 -8 1 -22 17 -32 17 -11 0 6 7 8 16 5 14 -5 15 -4
4 9 -12 14 -5 18 26 14 3 0 21 11 39 26 19 14 32 19 29 12 -3 -8 -14 -19 -26
-24 -19 -8 -19 -10 -4 -26 9 -9 24 -13 33 -10 13 5 15 2 9 -13 -5 -14 -4 -16
4 -8 16 16 2 48 -15 34 -9 -8 -15 -8 -20 0 -6 9 1 14 18 11 4 0 7 4 7 10 0 7
10 -1 23 -17 12 -16 22 -32 22 -35 0 -4 4 -11 8 -16 5 -4 7 -1 5 7 -2 9 4 14
15 14 14 -2 15 1 6 12 -8 9 -8 14 -1 14 6 0 15 -8 21 -17 8 -14 9 -13 8 8 -2
22 -6 25 -34 23 -18 -1 -33 3 -33 8 0 5 -4 7 -8 4 -11 -7 -8 31 3 41 4 5 6 3
2 -2 -11 -20 11 -38 48 -38 25 0 34 -4 31 -14 -3 -7 4 -18 16 -24 15 -8 18 -8
14 0 -4 6 -2 11 3 11 6 0 10 5 8 12 -1 7 12 13 31 15 34 3 38 -3 21 -27 -9
-13 -10 -12 -5 2 4 15 2 16 -18 7 -24 -11 -31 -36 -10 -36 7 0 10 7 6 16 -5
13 -3 14 10 3 13 -10 19 -10 32 3 8 9 13 21 10 29 -3 7 3 19 13 27 16 13 17
12 4 -4 -16 -20 -7 -37 10 -20 6 6 18 9 26 6 8 -3 19 0 24 8 6 10 9 11 9 1 0
-13 -47 -37 -67 -33 -6 1 -11 -8 -10 -19 1 -11 5 -20 10 -20 5 0 6 8 3 17 -4
10 -4 14 -1 11 4 -4 27 2 52 13 54 23 57 23 50 4 -7 -17 8 -29 23 -20 8 5 7
11 -1 21 -10 12 -9 17 0 27 10 9 11 8 5 -6 -3 -10 -3 -17 2 -16 19 3 33 -2 48
-17 11 -10 16 -11 16 -3 0 6 -8 18 -17 25 -17 13 -17 14 1 7 12 -4 17 -3 13 4
-3 5 0 10 8 10 8 0 12 -4 10 -8 -3 -3 2 -12 10 -19 12 -10 18 -10 30 0 8 7 12
17 8 24 -5 7 -2 7 8 -1 9 -8 20 -9 29 -3 21 13 38 12 20 -1 -12 -9 -11 -10 7
-6 15 3 20 1 16 -9 -4 -10 -10 -11 -23 -4 -24 13 -33 13 -25 1 3 -6 -4 -8 -16
-6 -16 3 -18 1 -10 -9 6 -7 7 -17 3 -22 -4 -5 2 -2 13 7 17 13 38 17 48 9 1
-1 10 -3 20 -5 14 -3 16 0 7 10 -7 8 -7 16 -2 19 6 3 12 -1 16 -9 3 -9 12 -12
22 -8 12 4 15 3 10 -5 -4 -7 -2 -12 4 -12 6 0 8 -5 4 -12 -4 -7 -3 -8 4 -4 9
5 9 13 2 27 -8 13 -7 19 0 19 6 0 8 5 5 11 -5 7 -14 4 -28 -8 -11 -10 -17 -13
-14 -6 4 6 0 16 -10 22 -10 6 -13 11 -7 11 5 0 15 -5 21 -11 8 -8 13 -8 17 0
5 7 13 7 26 -1 16 -10 24 -8 47 12 24 22 25 22 9 3 -11 -14 -14 -23 -7 -23 6
0 20 15 31 32 21 35 28 31 9 -5 -15 -28 -30 -38 -47 -32 -7 3 -10 1 -7 -4 3
-5 1 -12 -5 -16 -5 -3 -10 -1 -10 4 0 6 -5 11 -10 11 -6 0 -5 -8 2 -20 7 -11
14 -16 16 -10 2 6 9 7 14 4 7 -4 8 -2 4 4 -4 7 -1 12 9 12 9 0 14 -4 11 -8 -3
-5 8 -8 24 -8 17 0 26 4 23 10 -4 5 1 7 10 3 10 -4 17 -1 17 5 0 6 3 8 7 5 3
-4 12 -2 20 5 11 9 18 8 30 -5 14 -14 19 -14 45 -1 22 11 28 12 28 2 0 -8 5
-6 11 5 10 16 32 25 26 10 -2 -8 6 -13 22 -13 5 0 11 9 14 19 3 14 1 18 -9 14
-8 -3 -12 -9 -9 -13 3 -5 1 -11 -4 -15 -6 -3 -8 4 -6 15 3 15 -1 20 -12 18 -9
-2 -18 4 -20 12 -4 12 -3 12 5 2 7 -11 13 -10 27 5 17 17 18 17 12 1 -3 -10
-2 -18 3 -18 6 0 10 5 10 11 0 5 5 7 10 4 6 -3 8 -17 6 -30 -3 -17 -1 -22 10
-18 9 3 12 14 10 29 -3 14 -1 22 5 19 5 -4 9 0 9 7 0 10 2 10 9 -1 5 -8 14
-10 22 -5 18 11 49 13 43 2 -9 -15 19 -8 40 9 20 17 20 17 6 -1 -14 -18 -13
-18 10 -12 l25 7 -25 -21 c-14 -12 -19 -19 -13 -15 7 3 23 1 35 -5 21 -10 22
-10 5 3 -10 9 -14 18 -9 21 6 3 8 16 5 29 -5 21 -5 21 10 2 8 -10 13 -25 10
-31 -2 -7 0 -15 6 -19 7 -4 8 0 4 11 -5 14 -3 15 16 4 20 -10 23 -9 28 9 3 12
10 21 15 21 5 0 6 -6 2 -12 -4 -8 -3 -10 2 -5 5 5 10 13 10 18 3 22 5 23 15 9
9 -13 10 -12 5 3 -3 10 0 20 9 23 7 3 11 12 9 19 -3 7 0 16 6 20 6 3 10 3 9
-2 -3 -20 2 -33 13 -33 9 0 9 3 1 11 -14 14 -6 39 14 39 8 0 12 4 9 8 -3 5 12
19 33 33 22 13 37 27 35 31 -2 4 9 15 26 24 16 10 30 23 30 30 0 6 9 19 20 29
11 10 20 24 20 32 0 7 4 13 10 13 5 0 12 11 16 25 3 14 9 25 13 25 4 0 8 6 9
13 0 6 11 39 24 72 l23 60 0 1215 c0 1165 -1 1217 -19 1270 -84 245 -264 399
-511 437 -55 8 -2290 10 -2390 1z m2569 -3386 c-17 -15 -33 -33 -35 -40 -4
-11 -11 -9 -29 7 -14 11 -19 20 -12 21 7 0 10 5 6 12 -4 7 -3 8 5 4 6 -4 9
-11 6 -16 -3 -5 -1 -11 4 -14 5 -4 13 -1 17 5 4 8 3 9 -4 5 -8 -5 -10 -2 -6 8
3 9 11 14 17 13 7 -1 11 4 9 11 -1 8 1 11 6 8 4 -2 14 -1 22 4 29 18 24 -3 -6
-28z m-2073 -39 c13 -16 12 -17 -3 -4 -17 13 -22 21 -14 21 2 0 10 -8 17 -17z
m1060 0 c13 -16 12 -17 -3 -4 -17 13 -22 21 -14 21 2 0 10 -8 17 -17z m567 -8
c-3 -3 -9 2 -12 12 -6 14 -5 15 5 6 7 -7 10 -15 7 -18z m77 -33 c-3 -3 -5 1
-5 9 0 9 -3 10 -8 3 -17 -25 -46 -33 -64 -17 -10 9 -22 12 -30 7 -29 -18 -45
-14 -45 12 0 19 2 22 8 13 6 -10 9 -11 9 -1 0 6 5 12 11 12 8 0 8 -4 0 -14 -8
-10 -9 -16 -1 -21 5 -3 10 -1 10 6 0 6 8 9 20 6 12 -3 24 1 30 11 8 14 9 14
10 2 0 -13 2 -13 11 0 9 12 10 12 5 -3 -4 -12 -2 -17 6 -14 7 2 12 15 10 28
-3 22 -2 22 13 -5 8 -16 13 -31 10 -34z m-244 25 c-7 -7 -17 -7 -33 1 -21 11
-21 11 6 5 22 -4 27 -3 21 7 -6 9 -4 11 4 5 9 -5 10 -10 2 -18z m-1346 3 c3
-6 -1 -7 -9 -4 -18 7 -21 14 -7 14 6 0 13 -4 16 -10z m105 -10 c-6 -11 -13
-20 -16 -20 -2 0 0 9 6 20 6 11 13 20 16 20 2 0 0 -9 -6 -20z m447 0 c1 -11
-2 -22 -6 -24 -6 -4 -7 26 -2 42 3 8 7 -1 8 -18z m183 10 c0 -5 -5 -10 -11
-10 -5 0 -7 5 -4 10 3 6 8 10 11 10 2 0 4 -4 4 -10z m85 0 c3 -6 -1 -7 -9 -4
-18 7 -21 14 -7 14 6 0 13 -4 16 -10z m32 -5 c0 -8 -4 -12 -9 -9 -5 3 -6 10
-3 15 9 13 12 11 12 -6z m207 7 c3 -5 -1 -9 -9 -9 -8 0 -15 4 -15 9 0 4 4 8 9
8 6 0 12 -4 15 -8z m196 3 c0 -7 -30 -13 -34 -7 -3 4 4 9 15 9 10 1 19 0 19
-2z m168 -30 c0 -30 -15 -42 -31 -26 -8 8 -6 11 6 11 9 0 16 3 16 8 -2 12 1
32 5 32 2 0 4 -11 4 -25z m-1048 -5 c-24 -15 -36 -11 -14 4 10 8 21 12 24 10
2 -3 -2 -9 -10 -14z m401 -3 c-10 -9 -11 -8 -5 6 3 10 9 15 12 12 3 -3 0 -11
-7 -18z m-81 -35 c0 -12 -3 -12 -15 -2 -8 7 -15 13 -15 15 0 1 7 2 15 2 8 0
15 -7 15 -15z"/>
<path d="M3516 921 c-4 -5 -2 -12 3 -15 5 -4 12 -2 15 3 4 5 2 12 -3 15 -5 4
-12 2 -15 -3z"/>
<path d="M4075 1091 c-3 -5 -2 -12 3 -15 5 -3 9 1 9 9 0 17 -3 19 -12 6z"/>
<path d="M1067 1071 c6 -7 9 -20 6 -27 -3 -8 -3 -14 0 -14 14 0 14 30 -1 41
-14 11 -15 11 -5 0z"/>
<path d="M970 1060 c0 -5 5 -10 11 -10 5 0 7 5 4 10 -3 6 -8 10 -11 10 -2 0
-4 -4 -4 -10z"/>
<path d="M1104 1043 c3 -4 -4 -13 -16 -20 -18 -9 -19 -12 -6 -13 9 0 20 5 23
10 4 6 12 7 18 3 7 -4 6 0 -2 10 -7 9 -16 17 -19 17 -3 0 -2 -3 2 -7z"/>
<path d="M4030 1042 c0 -4 9 -8 20 -9 11 -1 20 2 20 5 0 4 -9 8 -20 9 -11 1
-20 -2 -20 -5z"/>
<path d="M4093 1035 c0 -8 4 -12 9 -9 4 3 8 9 8 15 0 5 -4 9 -8 9 -5 0 -9 -7
-9 -15z"/>
<path d="M956 1022 c-3 -5 1 -9 9 -9 8 0 12 4 9 9 -3 4 -7 8 -9 8 -2 0 -6 -4
-9 -8z"/>
<path d="M993 1005 c0 -8 3 -13 5 -10 3 3 10 0 17 -5 8 -7 12 -5 12 5 0 8 -3
13 -5 10 -3 -3 -10 0 -17 5 -8 7 -12 5 -12 -5z"/>
<path d="M1135 1010 c-4 -6 -11 -7 -17 -4 -7 5 -8 2 -3 -6 6 -10 4 -12 -8 -7
-12 4 -15 1 -12 -15 3 -11 7 -23 11 -27 4 -3 4 2 0 13 -5 14 -2 17 9 12 9 -3
13 -2 10 4 -3 6 -2 10 3 10 6 0 12 7 16 15 6 17 0 20 -9 5z"/>
<path d="M4040 1015 c0 -5 5 -17 10 -25 5 -8 10 -10 10 -5 0 6 -5 17 -10 25
-5 8 -10 11 -10 5z"/>
<path d="M1046 997 c3 -10 9 -15 12 -12 3 3 0 11 -7 18 -10 9 -11 8 -5 -6z"/>
<path d="M1154 999 c-5 -8 -3 -10 6 -4 10 6 12 4 7 -8 -4 -12 -2 -14 10 -10
11 4 14 2 9 -5 -5 -8 -2 -10 9 -6 10 4 15 2 13 -7 -2 -7 2 -13 7 -14 6 0 15
-3 21 -7 6 -4 16 4 23 20 7 15 9 24 5 20 -4 -4 -13 -3 -21 3 -10 9 -13 8 -13
-5 0 -10 -5 -14 -10 -11 -6 4 -7 11 -4 17 5 7 2 8 -5 4 -7 -5 -20 -1 -31 9
-14 12 -20 13 -26 4z m96 -39 c0 -5 -5 -10 -11 -10 -5 0 -7 5 -4 10 3 6 8 10
11 10 2 0 4 -4 4 -10z"/>
<path d="M4113 995 c0 -8 4 -12 9 -9 5 3 6 10 3 15 -9 13 -12 11 -12 -6z"/>
<path d="M3998 993 c7 -3 16 -2 19 1 4 3 -2 6 -13 5 -11 0 -14 -3 -6 -6z"/>
<path d="M4030 983 c0 -6 8 -17 18 -24 16 -13 16 -13 2 6 -8 11 -16 22 -17 24
-2 2 -3 0 -3 -6z"/>
<path d="M4080 980 c-9 -6 -10 -10 -3 -10 6 0 15 5 18 10 8 12 4 12 -15 0z"/>
<path d="M1141 964 c0 -11 3 -14 6 -6 3 7 2 16 -1 19 -3 4 -6 -2 -5 -13z"/>
<path d="M3986 963 c-6 -14 -5 -15 5 -6 7 7 10 15 7 18 -3 3 -9 -2 -12 -12z"/>
<path d="M1054 954 c1 -7 6 -17 10 -21 4 -4 6 -1 4 7 -2 9 3 14 12 12 8 -2 11
0 7 4 -13 14 -35 12 -33 -2z"/>
<path d="M3733 945 c-4 -12 -9 -13 -18 -5 -9 7 -15 7 -19 1 -8 -13 4 -19 28
-15 11 1 26 -5 33 -14 12 -15 13 -14 3 6 -6 12 -8 22 -5 22 11 0 43 -39 37
-45 -4 -3 2 -3 12 1 17 7 17 8 -3 19 -12 6 -19 13 -16 16 3 3 -6 11 -20 17
-21 10 -27 9 -32 -3z"/>
<path d="M4075 951 c-3 -5 -2 -12 3 -15 5 -3 9 1 9 9 0 17 -3 19 -12 6z"/>
<path d="M1175 940 c-3 -6 1 -13 9 -16 9 -3 13 -11 9 -18 -4 -6 1 -5 10 2 9 8
22 10 28 6 8 -4 9 -3 5 5 -4 6 -13 11 -19 10 -25 -3 -38 1 -32 11 3 6 4 10 1
10 -3 0 -8 -5 -11 -10z"/>
<path d="M1326 927 c-14 -15 -15 -19 -4 -15 9 4 22 1 29 -5 11 -10 11 -9 1 4
-11 14 -9 17 14 17 14 0 28 -7 31 -15 5 -12 7 -12 14 -2 12 20 -9 41 -31 29
-9 -5 -21 -5 -26 -1 -5 4 -18 -1 -28 -12z"/>
<path d="M1135 929 c-4 -6 -5 -12 -2 -15 2 -3 7 2 10 11 7 17 1 20 -8 4z"/>
<path d="M1473 922 c-5 -11 -7 -11 -14 0 -5 7 -9 9 -9 3 0 -5 5 -17 10 -25 6
-10 10 -11 10 -2 0 6 6 12 14 12 8 0 16 6 19 13 3 8 -2 14 -10 14 -8 0 -17 -7
-20 -15z"/>
<path d="M1715 911 c-3 -6 -11 -9 -16 -6 -15 10 -10 -5 8 -23 16 -16 16 -16
11 0 -4 9 -2 19 5 21 7 2 9 7 6 11 -4 4 -10 2 -14 -3z"/>
<path d="M1915 909 c-4 -6 -4 -13 -1 -16 3 -3 0 -13 -7 -21 -10 -13 -9 -14 3
-7 8 5 26 10 40 11 37 2 37 3 10 24 -29 23 -36 24 -45 9z m32 -25 c-9 -9 -28
6 -21 18 4 6 10 6 17 -1 6 -6 8 -13 4 -17z"/>
<path d="M3895 911 c-3 -5 -2 -12 3 -15 5 -3 9 1 9 9 0 17 -3 19 -12 6z"/>
<path d="M3088 883 c5 -21 7 -23 10 -9 2 10 0 22 -6 28 -6 6 -7 0 -4 -19z"/>
<path d="M3699 908 c-6 -21 -5 -37 2 -32 5 3 7 9 4 14 -3 4 1 11 7 13 10 4 10
6 1 6 -7 1 -13 0 -14 -1z"/>
<path d="M3730 900 c0 -5 5 -10 11 -10 5 0 7 5 4 10 -3 6 -8 10 -11 10 -2 0
-4 -4 -4 -10z"/>
<path d="M1501 884 c0 -11 3 -14 6 -6 3 7 2 16 -1 19 -3 4 -6 -2 -5 -13z"/>
<path d="M1991 882 c-7 -14 -6 -19 4 -19 17 0 28 24 15 32 -5 3 -13 -3 -19
-13z"/>
<path d="M2059 899 c-6 -31 -6 -39 2 -39 5 0 9 4 9 9 0 5 11 8 24 5 14 -2 26
1 29 10 6 14 -16 16 -29 3 -4 -4 -13 -2 -21 4 -7 6 -13 10 -14 8z"/>
<path d="M2938 879 c-21 -11 -38 -22 -38 -25 0 -2 9 0 19 6 26 13 34 13 25 -2
-6 -10 -5 -10 7 -1 12 10 18 10 29 0 12 -10 12 -9 1 5 -7 9 -10 22 -6 28 8 13
7 13 -37 -11z"/>
<path d="M3024 882 c-1 -9 -4 -26 -8 -37 -4 -11 0 -7 9 8 9 15 20 25 25 22 6
-4 10 -4 10 -1 0 3 -8 10 -18 15 -14 7 -18 6 -18 -7z"/>
<path d="M2390 882 c0 -4 5 -14 10 -22 8 -12 10 -12 10 -1 0 11 3 11 18 0 15
-12 16 -12 5 2 -7 9 -11 18 -8 20 2 3 -5 5 -15 6 -11 1 -20 -1 -20 -5z"/>
<path d="M2550 878 c0 -4 7 -8 15 -8 8 0 15 4 15 8 0 5 -7 9 -15 9 -8 0 -15
-4 -15 -9z"/>
<path d="M3120 875 c-11 -13 -10 -14 4 -9 9 3 16 10 16 15 0 13 -6 11 -20 -6z"/>
<path d="M3596 882 c-3 -5 1 -9 9 -9 8 0 12 4 9 9 -3 4 -7 8 -9 8 -2 0 -6 -4
-9 -8z"/>
<path d="M1690 871 c0 -6 4 -13 10 -16 6 -3 7 1 4 9 -7 18 -14 21 -14 7z"/>
<path d="M1735 860 c3 -5 8 -10 11 -10 2 0 4 5 4 10 0 6 -5 10 -11 10 -5 0 -7
-4 -4 -10z"/>
<path d="M1855 860 c-3 -5 -1 -10 4 -10 6 0 11 5 11 10 0 6 -2 10 -4 10 -3 0
-8 -4 -11 -10z"/>
<path d="M3175 860 c-3 -5 -1 -10 4 -10 6 0 11 5 11 10 0 6 -2 10 -4 10 -3 0
-8 -4 -11 -10z"/>
<path d="M3207 859 c7 -7 15 -10 18 -7 3 3 -2 9 -12 12 -14 6 -15 5 -6 -5z"/>
<path d="M1956 847 c3 -10 9 -15 12 -12 3 3 0 11 -7 18 -10 9 -11 8 -5 -6z"/>
</g>
</svg>
